<svg xmlns="http://www.w3.org/2000/svg" viewBox="0 0 512 512">
  <defs>
    <linearGradient id="iconGrad" x1="0%" y1="0%" x2="100%" y2="100%">
      <stop offset="0%" style="stop-color:#0ea5e9" />
      <stop offset="100%" style="stop-color:#4f46e5" />
    </linearGradient>
    <filter id="softShadow" x="-20%" y="-20%" width="140%" height="140%">
      <feGaussianBlur in="SourceAlpha" stdDeviation="12" />
      <feOffset dx="0" dy="12" result="offsetblur" />
      <feComponentTransfer>
        <feFuncA type="linear" slope="0.25" />
      </feComponentTransfer>
      <feMerge>
        <feMergeNode />
        <feMergeNode in="SourceGraphic" />
      </feMerge>
    </filter>
  </defs>
  
  <!-- Background -->
  <rect width="512" height="512" rx="128" fill="url(#iconGrad)" />
  
  <!-- Receipt Shape -->
  <g filter="url(#softShadow)" transform="translate(116, 80)">
    <path d="M0 0h280v320l-23.3-12-23.3 12-23.3-12-23.3 12-23.3-12-23.3 12-23.3-12-23.3 12-23.3-12-23.3 12-23.3-12L0 320V0z" fill="white" />
    
    <!-- Abstract "Split" Graphic -->
    <path d="M0 160l280-40v30L0 190z" fill="#f1f5f9" />
    
    <!-- AI Sparkle (Gold) -->
    <path d="M230 40l10 25 25 10-25 10-10 25-10-25-25-10 25-10 10-25z" fill="#fbbf24" />
    
    <!-- Stylized Receipt Lines -->
    <rect x="40" y="50" width="110" height="14" rx="7" fill="#e2e8f0" />
    <rect x="40" y="85" width="70" height="14" rx="7" fill="#e2e8f0" />
    
    <rect x="40" y="220" width="200" height="14" rx="7" fill="#e2e8f0" />
    <rect x="40" y="255" width="140" height="14" rx="7" fill="#e2e8f0" />
    
    <!-- Total Amount Indicator -->
    <rect x="180" y="280" width="60" height="22" rx="6" fill="#0ea5e9" opacity="0.15" />
  </g>
</svg>